<?xml version="1.0" standalone="no"?><!DOCTYPE svg PUBLIC "-//W3C//DTD SVG 1.1//EN" "http://www.w3.org/Graphics/SVG/1.1/DTD/svg11.dtd"><svg t="1490272455424" class="icon" style="" viewBox="0 0 1024 1024" version="1.1" xmlns="http://www.w3.org/2000/svg" p-id="4236" xmlns:xlink="http://www.w3.org/1999/xlink" width="200" height="200"><defs><style type="text/css"></style></defs><path d="M512 960c-247.424 0-448-200.576-448-448s200.576-448 448-448 448 200.576 448 448S759.424 960 512 960zM512 176C326.464 176 176 326.464 176 512S326.464 848 512 848s336-150.464 336-336S697.536 176 512 176zM736 568 456 568l0-112L456 288c0-31.168 24.832-56 56-56S568 256.832 568 288l0 168L736 456c31.168 0 56 24.832 56 56S767.168 568 736 568z" p-id="4237"></path></svg>