<svg id="图层_1" data-name="图层 1" xmlns="http://www.w3.org/2000/svg" viewBox="0 0 440 512"><defs><style>.cls-1,.cls-4{fill:#424242;}.cls-1,.cls-2{fill-rule:evenodd;}.cls-2{fill:#616161;}.cls-3{fill:#fff;}</style></defs><title>压缩文件</title><path class="cls-1" d="M476,112V472a40.12,40.12,0,0,1-40,40H76a40.12,40.12,0,0,1-40-40V40A40.12,40.12,0,0,1,76,0H364Z" transform="translate(-36)"/><path class="cls-2" d="M364,72V0L476,112H404A40.12,40.12,0,0,1,364,72Z" transform="translate(-36)"/><rect class="cls-3" x="120" y="156" width="200" height="200" rx="13.33" ry="13.33"/><rect class="cls-4" x="193.33" y="156" width="26.67" height="6.74"/><rect class="cls-4" x="220" y="162.74" width="26.67" height="6.74"/><rect class="cls-4" x="193.33" y="169.49" width="26.67" height="6.74"/><rect class="cls-4" x="220" y="176.23" width="26.67" height="6.74"/><rect class="cls-4" x="193.33" y="182.97" width="26.67" height="6.74"/><rect class="cls-4" x="220" y="189.71" width="26.67" height="6.74"/><rect class="cls-4" x="193.33" y="196.46" width="26.67" height="6.74"/><rect class="cls-4" x="220" y="203.2" width="26.67" height="6.74"/><rect class="cls-4" x="193.33" y="209.94" width="26.67" height="6.74"/><rect class="cls-4" x="220" y="216.69" width="26.67" height="6.74"/><rect class="cls-4" x="193.33" y="223.43" width="26.67" height="6.74"/><rect class="cls-4" x="220" y="230.17" width="26.67" height="6.74"/><rect class="cls-4" x="193.33" y="236.91" width="26.67" height="6.74"/><rect class="cls-4" x="220" y="243.66" width="26.67" height="6.74"/><rect class="cls-4" x="193.33" y="250.4" width="26.67" height="6.74"/><rect class="cls-4" x="220" y="250.4" width="26.67" height="6.74"/><rect class="cls-4" x="220" y="257.13" width="26.67" height="6.74"/><rect class="cls-4" x="193.33" y="257.13" width="26.67" height="6.74"/><path class="cls-4" d="M282.67,280.69H229.33V260.55h53.33ZM235.8,274h40.4v-6.8H235.8Z" transform="translate(-36)"/></svg>