<?xml version="1.0" encoding="utf-8"?>
<!-- Generator: Adobe Illustrator 20.1.0, SVG Export Plug-In . SVG Version: 6.00 Build 0)  -->
<svg version="1.1" id="图层_1" xmlns="http://www.w3.org/2000/svg" xmlns:xlink="http://www.w3.org/1999/xlink" x="0px" y="0px"
	 viewBox="0 0 512 512" style="enable-background:new 0 0 512 512;" xml:space="preserve">
<style type="text/css">
	.st0{fill:#F5CC50;}
	.st1{fill:#FFFFFF;}
	.st2{fill:#FFD65A;}
</style>
<g>
	<path class="st0" d="M444.9,109.5h-198l-17.4-32.7c-1.3-2.4-3-3.6-4.6-3.6H18.4C8.3,73.1,0,86,0,101.9v25.9v3.8v288.8
		c0,10.1,8.3,18.4,18.4,18.4h426.4c10.2,0,18.4-8.2,18.4-18.4V127.8C463.3,117.7,455,109.5,444.9,109.5z"/>
	<path class="st1" d="M438.4,438.9H24.9c-9.8,0-17.8-8-17.8-17.8V139.7c0-9.8,8-17.8,17.8-17.8h413.6c9.8,0,17.8,8,17.8,17.8v281.4
		C456.2,430.9,448.3,438.9,438.4,438.9z"/>
	<path class="st2" d="M446.8,438.9H15.7c-10.3,0-17.2-9.1-15.4-20.4l43-266.4c1.8-11.3,11.6-20.4,21.9-20.4h431.1
		c10.3,0,17.2,9.1,15.4,20.4l-43,266.4C466.9,429.7,457.1,438.9,446.8,438.9z"/>
</g>
</svg>
