<svg id="图层_1" data-name="图层 1" xmlns="http://www.w3.org/2000/svg" viewBox="0 0 440 512"><defs><style>.cls-1{fill:#30c27b;}.cls-1,.cls-2,.cls-3{fill-rule:evenodd;}.cls-2{fill:#97e0bd;}.cls-3{fill:#fff;}</style></defs><title>文档</title><path class="cls-1" d="M476,112V472a40.12,40.12,0,0,1-40,40H76a40.12,40.12,0,0,1-40-40V40A40.12,40.12,0,0,1,76,0H364Z" transform="translate(-36)"/><path class="cls-2" d="M364,72V0L476,112H404A40.12,40.12,0,0,1,364,72Z" transform="translate(-36)"/><path class="cls-3" d="M325.36,156H186.64A17.71,17.71,0,0,0,169,173.66V338.34A17.71,17.71,0,0,0,186.64,356H325.36A17.71,17.71,0,0,0,343,338.34V173.66A17.71,17.71,0,0,0,325.36,156ZM307,281.87a6.59,6.59,0,0,1-4.67,1.94H209.64a6.62,6.62,0,0,1,0-13.25h92.72a6.61,6.61,0,0,1,4.67,11.3Zm0-37.68a6.59,6.59,0,0,1-4.67,1.94H209.64a6.62,6.62,0,0,1,0-13.25h92.72a6.61,6.61,0,0,1,4.67,11.3Zm0-37.68a6.6,6.6,0,0,1-4.67,2H209.64a6.62,6.62,0,0,1,0-13.25h92.72A6.61,6.61,0,0,1,307,206.51Z" transform="translate(-36)"/></svg>