<svg id="图层_1" data-name="图层 1" xmlns="http://www.w3.org/2000/svg" viewBox="0 0 440 512"><defs><style>.cls-1{fill:#1976d2;}.cls-1,.cls-2{fill-rule:evenodd;}.cls-2{fill:#1e88e5;}.cls-3{fill:#fff;}</style></defs><title>应用程序</title><path class="cls-1" d="M476,112V472a40.12,40.12,0,0,1-40,40H76a40.12,40.12,0,0,1-40-40V40A40.12,40.12,0,0,1,76,0H364Z" transform="translate(-36)"/><path class="cls-2" d="M364,72V0L476,112H404A40.12,40.12,0,0,1,364,72Z" transform="translate(-36)"/><path class="cls-3" d="M261.91,157.39a13.29,13.29,0,0,0-11.82,0L172.9,201.28c-3.25,1.85-3.25,4.87,0,6.72l77.19,43.89a13.29,13.29,0,0,0,11.82,0L339.1,208c3.25-1.85,3.25-4.87,0-6.72Z" transform="translate(-36)"/><path class="cls-3" d="M172.83,210.12c-3.21-1.86-5.84-.34-5.84,3.37v87.73a13,13,0,0,0,5.84,10.12l76,43.86c3.21,1.86,5.84.34,5.84-3.37V264.11A13,13,0,0,0,248.81,254Z" transform="translate(-36)"/><path class="cls-3" d="M339.17,210.12c3.21-1.86,5.84-.34,5.84,3.37v87.73a13,13,0,0,1-5.84,10.12l-76,43.86c-3.21,1.86-5.84.34-5.84-3.37V264.11A13,13,0,0,1,263.19,254Z" transform="translate(-36)"/></svg>