<svg id="图层_1" data-name="图层 1" xmlns="http://www.w3.org/2000/svg" viewBox="0 0 440 512"><defs><style>.cls-1{fill:#64b5f6;}.cls-1,.cls-2,.cls-3{fill-rule:evenodd;}.cls-2{fill:#90caf9;}.cls-3{fill:#fff;}</style></defs><title>图片</title><path class="cls-1" d="M476,112V472a40.12,40.12,0,0,1-40,40H76a40.12,40.12,0,0,1-40-40V40A40.12,40.12,0,0,1,76,0H364Z" transform="translate(-36)"/><path class="cls-2" d="M364,72V0L476,112H404A40.12,40.12,0,0,1,364,72Z" transform="translate(-36)"/><path class="cls-3" d="M355,191.86a16.49,16.49,0,0,0-15.42-10.78H171.48a16.49,16.49,0,0,0-15.42,10.78c0,.05,0,.1-.06.16V312.34l25.73-32.18a21,21,0,0,1,7.07-5.74,19.61,19.61,0,0,1,8.66-2,20.13,20.13,0,0,1,15.72,7.76l14.41,18,42.65-53.36a20.85,20.85,0,0,1,7.07-5.74,19.57,19.57,0,0,1,8.65-2,20.13,20.13,0,0,1,15.72,7.76l54.32,68V197.5A16.13,16.13,0,0,0,355,191.86ZM197.08,247.09c-11.75,0-21.29-9.28-21.29-20.74s9.53-20.74,21.29-20.74,21.29,9.28,21.29,20.74S208.84,247.09,197.08,247.09ZM243.31,314a19.81,19.81,0,0,1-31.45,0l-14.4-18-27.82,34.79a14.82,14.82,0,0,0,1.84.11H339.58a15.85,15.85,0,0,0,2.38-.18l-56-70.07Z" transform="translate(-36)"/></svg>