<svg id="图层_1" data-name="图层 1" xmlns="http://www.w3.org/2000/svg" viewBox="0 0 440 512"><defs><style>.cls-1{fill:#ffd54f;}.cls-1,.cls-2,.cls-3{fill-rule:evenodd;}.cls-2{fill:#ffe082;}.cls-3{fill:#fff;}</style></defs><title>音频文件</title><path class="cls-1" d="M476,112V472a40.12,40.12,0,0,1-40,40H76a40.12,40.12,0,0,1-40-40V40A40.12,40.12,0,0,1,76,0H364Z" transform="translate(-36)"/><path class="cls-2" d="M364,72V0L476,112H404A40.12,40.12,0,0,1,364,72Z" transform="translate(-36)"/><path class="cls-3" d="M335.57,233.67a21.5,21.5,0,0,1-3.17,8.21q-2.19,3.17-3.71,3a4.05,4.05,0,0,1-2.74-2.19q-1.2-2-1.86-7.22-1.09-8.55-5.57-12.6T304.62,217a39.94,39.94,0,0,1-17.39-8,127,127,0,0,1-12.57-11.29c-3.2-3.08-5.67-4.16-7.42-3.29s-2.62,2.49-2.62,4.82v9.42l-.21,96.38v12.49a37.11,37.11,0,0,1-1.64,11.72,30.88,30.88,0,0,1-7,12.16,42.93,42.93,0,0,1-13.66,9.75q-8.53,4-21.21,4.71a45.6,45.6,0,0,1-23.29-4.6,43,43,0,0,1-16.07-13.25A29,29,0,0,1,176,320.55q.11-9.52,8.2-17.85a45.29,45.29,0,0,1,17.5-11.61,62.8,62.8,0,0,1,33.79-2.41,71.74,71.74,0,0,1,10.16,2.85s.08-98.65.23-120.26a16.11,16.11,0,0,1,3.27-10.41,12.76,12.76,0,0,1,8.75-4.71,8.94,8.94,0,0,1,7.52,1.84,34.79,34.79,0,0,1,6,7q3.07,4.48,7.55,10.19a58.9,58.9,0,0,0,12.14,11.17,59.16,59.16,0,0,0,11.49,7.22q4.91,2.19,9.19,4a63.12,63.12,0,0,1,8.42,4.49,43,43,0,0,1,9.19,8.54,24.39,24.39,0,0,1,6.12,11.82,30.65,30.65,0,0,1,.09,11.19Z" transform="translate(-36)"/></svg>