<svg id="图层_1" data-name="图层 1" xmlns="http://www.w3.org/2000/svg" viewBox="0 0 440 512"><defs><style>.cls-1{fill:#ba68c8;}.cls-1,.cls-2{fill-rule:evenodd;}.cls-2{fill:#ce93d8;}.cls-3{fill:#fff;}</style></defs><title>视频文件</title><path class="cls-1" d="M476,112V472a40.12,40.12,0,0,1-40,40H76a40.12,40.12,0,0,1-40-40V40A40.12,40.12,0,0,1,76,0H364Z" transform="translate(-36)"/><path class="cls-2" d="M364,72V0L476,112H404A40.12,40.12,0,0,1,364,72Z" transform="translate(-36)"/><path class="cls-3" d="M333.76,271.78c15-8.68,15-22.88,0-31.56L194.3,159.7c-15-8.68-27.34-1.58-27.34,15.78v161c0,17.36,12.3,24.46,27.34,15.78Z" transform="translate(-36)"/></svg>