<?xml version="1.0" encoding="utf-8"?>
<!-- Generator: Adobe Illustrator 20.1.0, SVG Export Plug-In . SVG Version: 6.00 Build 0)  -->
<svg version="1.1" id="图层_1" xmlns="http://www.w3.org/2000/svg" xmlns:xlink="http://www.w3.org/1999/xlink" x="0px" y="0px"
	 viewBox="0 0 512 512" style="enable-background:new 0 0 512 512;" xml:space="preserve">
<style type="text/css">
	.st0{fill:#FFFFFF;}
	.st1{fill:#E4E4E4;}
</style>
<g>
	<g>
		<g>
			<path class="st0" d="M121,8.1L121,8.1c34-9.1,66.5,10.8,71.8,41.5l38.4,220.6c2.2,12.4-12.1,26.3-31.6,31.5l0,0
				c-19.5,5.2-38.8,0.3-43.1-11.5L79.6,80C68.9,50.7,87.1,17.2,121,8.1z"/>
			<path class="st1" d="M184,309.8c-16,0-29-6.4-33-17.5L74,82c-5.5-15.1-4.4-31.6,3.3-46.4c8.4-16.1,23.8-28.2,42.2-33.2
				c18.4-4.9,37.8-2.2,53.1,7.6c14.1,9,23.3,22.7,26.1,38.6l38.4,220.6c2.7,15.6-12.7,32-35.9,38.3C195.3,309,189.5,309.8,184,309.8
				z M137.6,11.9c-5,0-10,0.7-15,2v0c-15.2,4.1-27.9,14-34.7,27.2c-6.1,11.8-7.1,24.9-2.7,36.9l77,210.3c2.8,7.7,17.9,12.6,36,7.8
				c18.1-4.8,28.7-16.7,27.3-24.7L187,50.6c-2.2-12.6-9.6-23.4-20.8-30.6C157.8,14.7,147.9,11.9,137.6,11.9z"/>
		</g>
		<g>
			<path class="st0" d="M391,8.1L391,8.1c-34-9.1-66.5,10.8-71.8,41.5l-38.4,220.6c-2.2,12.4,12.1,26.3,31.6,31.5l0,0
				c19.5,5.2,38.8,0.3,43.1-11.5l77-210.2C443.1,50.7,424.9,17.2,391,8.1z"/>
			<path class="st1" d="M328,309.8c-5.5,0-11.3-0.8-17.2-2.3c-23.2-6.2-38.7-22.7-35.9-38.3l38.4-220.6c2.8-15.9,12-29.6,26.1-38.6
				c15.3-9.8,34.7-12.6,53.1-7.6L391,8.1l1.5-5.7c18.4,4.9,33.8,17,42.2,33.2c7.7,14.8,8.9,31.3,3.3,46.4l-77,210.2
				C357,303.3,344,309.8,328,309.8z M374.4,11.9c-10.3,0-20.2,2.8-28.6,8.2c-11.2,7.2-18.6,18-20.8,30.6l-38.4,220.6
				c-1.4,8,9.2,19.9,27.3,24.7c18.1,4.8,33.2-0.1,36-7.8l77-210.3c4.4-12,3.4-25.1-2.7-36.9c-6.9-13.2-19.5-23.1-34.7-27.2l0,0
				C384.4,12.5,379.4,11.9,374.4,11.9z"/>
		</g>
	</g>
	<g>
		<g>
			<path class="st1" d="M138.1,77.5L138.1,77.5c17.9-4.8,35,5.7,37.9,21.9l20.3,116.2c1.1,6.5-6.4,13.8-16.7,16.6h0
				c-10.3,2.8-20.5,0.2-22.7-6l-40.6-110.8C110.6,100,120.2,82.3,138.1,77.5z"/>
		</g>
		<g>
			<path class="st1" d="M373.9,77.5L373.9,77.5c-17.9-4.8-35,5.7-37.9,21.9l-20.3,116.2c-1.1,6.5,6.4,13.8,16.7,16.6h0
				c10.3,2.8,20.5,0.2,22.7-6l40.6-110.8C401.4,100,391.8,82.3,373.9,77.5z"/>
		</g>
	</g>
	<g>
		<ellipse class="st0" cx="256" cy="358.5" rx="180.2" ry="147.5"/>
		<path class="st1" d="M256,512c-102.6,0-186.1-68.8-186.1-153.5S153.4,205.1,256,205.1c102.6,0,186.1,68.8,186.1,153.5
			S358.6,512,256,512z M256,216.9c-96.1,0-174.2,63.5-174.2,141.6S159.9,500.1,256,500.1s174.2-63.5,174.2-141.6
			S352.1,216.9,256,216.9z"/>
	</g>
	<g>
		<g>
			<ellipse class="st1" cx="172.1" cy="338.4" rx="16.6" ry="26.5"/>
		</g>
		<g>
			<ellipse class="st1" cx="339.9" cy="338.4" rx="16.6" ry="26.5"/>
		</g>
	</g>
</g>
</svg>
