<svg id="图层_1" data-name="图层 1" xmlns="http://www.w3.org/2000/svg" viewBox="0 0 512 472.9"><defs><style>.cls-1{fill:#4d4d4d;}</style></defs><title>全部</title><path class="cls-1" d="M490.35,348.55,410,316.28,351.24,292.7,292.5,316.28l58.75,23.57,91.4,36.7L267,447.06c-5.37,2.15-16.7,2.16-22.06,0L69.36,376.55l91.4-36.7,58.74-23.58-58.74-23.58L102,316.28,21.64,348.55C1.56,356.61,0,372,0,376.55s1.56,19.95,21.64,28l207,83.12c7.93,3.17,17.63,4.77,27.34,4.77s19.42-1.6,27.33-4.77l207-83.12c20.08-8.06,21.65-23.48,21.65-28S510.43,356.61,490.35,348.55Z" transform="translate(0 -19.55)"/><path class="cls-1" d="M490.35,228,410,195.73l-58.74-23.58-58.74,23.57,58.74,23.58,91.4,36.7-91.4,36.7L292.5,316.28,267,326.5c-5.37,2.15-16.7,2.15-22.06,0l-25.48-10.23-58.74-23.58L69.36,256l91.39-36.7,58.75-23.58-58.74-23.58L102,195.73,21.64,228C1.56,236.05,0,251.46,0,256s1.56,19.95,21.64,28L102,316.28l58.74,23.57,67.91,27.27c7.92,3.17,17.62,4.76,27.33,4.76s19.42-1.59,27.33-4.76l67.91-27.27L410,316.28,490.35,284c20.08-8.06,21.65-23.48,21.65-28S510.43,236.05,490.35,228Z" transform="translate(0 -19.55)"/><path class="cls-1" d="M490.35,107.43l-207-83.11C267.5,18,244.5,18,228.67,24.32l-207,83.11C1.56,115.5,0,130.91,0,135.44s1.56,19.95,21.64,28L102,195.73l58.73,23.57,67.91,27.27c7.93,3.17,17.63,4.76,27.34,4.76s19.42-1.59,27.33-4.76l67.91-27.27L410,195.73l80.37-32.28c20.08-8.06,21.65-23.48,21.65-28S510.43,115.5,490.35,107.43ZM351.24,172.14l-58.74,23.57L267,205.95c-5.37,2.15-16.7,2.15-22.06,0l-25.48-10.23-58.74-23.58-91.4-36.69L245,64.93c5.36-2.15,16.69-2.15,22.06,0l175.62,70.51Z" transform="translate(0 -19.55)"/></svg>