<svg id="图层_1" data-name="图层 1" xmlns="http://www.w3.org/2000/svg" viewBox="0 0 373.51 512"><defs><style>.cls-1{fill:#666;}</style></defs><title>文档</title><path class="cls-1" d="M338,145.31H174a23.21,23.21,0,0,1,0-46.42H338a23.21,23.21,0,0,1,0,46.42Z" transform="translate(-69.25)"/><path class="cls-1" d="M338,228.44H174A23.21,23.21,0,0,1,174,182H338a23.21,23.21,0,0,1,0,46.42Z" transform="translate(-69.25)"/><path class="cls-1" d="M273.61,512H138.88a69.71,69.71,0,0,1-69.63-69.63V69.63A69.71,69.71,0,0,1,138.88,0H373.12a69.71,69.71,0,0,1,69.63,69.63V342.85H396.33V69.63a23.24,23.24,0,0,0-23.21-23.21H138.88a23.24,23.24,0,0,0-23.21,23.21V442.36a23.24,23.24,0,0,0,23.21,23.21H273.61Z" transform="translate(-69.25)"/><path class="cls-1" d="M273.61,512a23.21,23.21,0,0,1-23.21-23.21V389.27A69.71,69.71,0,0,1,320,319.64h99.52a23.21,23.21,0,0,1,0,46.42H320a23.24,23.24,0,0,0-23.21,23.21v99.51A23.21,23.21,0,0,1,273.61,512Z" transform="translate(-69.25)"/><path class="cls-1" d="M273.6,512a23.21,23.21,0,0,1-16.41-39.62L403.13,326.44A23.21,23.21,0,1,1,436,359.26L290,505.2A23.14,23.14,0,0,1,273.6,512Z" transform="translate(-69.25)"/></svg>