<?xml version="1.0" encoding="utf-8"?>
<!-- Generator: Adobe Illustrator 20.1.0, SVG Export Plug-In . SVG Version: 6.00 Build 0)  -->
<svg version="1.1" id="图层_1" xmlns="http://www.w3.org/2000/svg" xmlns:xlink="http://www.w3.org/1999/xlink" x="0px" y="0px"
	 viewBox="0 0 512 512" style="enable-background:new 0 0 512 512;" xml:space="preserve">
<style type="text/css">
	.st0{fill:#666666;}
	.st1{fill:#FFFFFF;}
</style>
<path class="st0" d="M512,256c0,66.3-25.2,126.7-66.5,172.1c-4,4.4-8.2,8.8-12.6,12.9c-46,44-108.3,71-176.9,71s-130.9-27-176.9-71
	c-4.3-4.1-8.5-8.4-12.6-12.9C25.2,382.7,0,322.3,0,256C0,114.6,114.6,0,256,0S512,114.6,512,256z"/>
<circle class="st1" cx="256" cy="187.1" r="98.3"/>
<path class="st1" d="M432.9,441c-46,44-108.3,71-176.9,71s-130.9-27-176.9-71c14.5-84.5,88.2-148.9,176.9-148.9
	S418.4,356.5,432.9,441z"/>
</svg>
