<svg id="图层_1" data-name="图层 1" xmlns="http://www.w3.org/2000/svg" viewBox="0 0 512 395.64"><defs><style>.cls-1{fill:#666;}</style></defs><title>图片</title><path class="cls-1" d="M465.45,58.18H46.55A46.6,46.6,0,0,0,0,104.73V407.27a46.6,46.6,0,0,0,46.55,46.55H465.45A46.6,46.6,0,0,0,512,407.27V104.73A46.6,46.6,0,0,0,465.45,58.18ZM193.93,406h-123l61.75-79.26,29.92,38.41c8.19,10.51,20.1,16.54,32.66,16.54s24.47-6,32.66-16.55L316.49,251.4l120,154.06h-243ZM465.45,104.73l0,262.25L349.15,217.59C341,207.07,329.05,201,316.49,201h0c-12.57,0-24.47,6-32.66,16.55L195.23,331.34l-29.92-38.41c-8.19-10.51-20.09-16.54-32.66-16.54h0c-12.57,0-24.47,6-32.66,16.54L46.55,361.54V104.73Z" transform="translate(0 -58.18)"/><circle class="cls-1" cx="131.88" cy="120.05" r="44.22"/></svg>