<svg id="图层_1" data-name="图层 1" xmlns="http://www.w3.org/2000/svg" viewBox="0 0 512 512"><defs><style>.cls-1{fill:#666;}</style></defs><title>音乐</title><path class="cls-1" d="M437,75A256,256,0,1,0,75,437,256,256,0,1,0,437,75ZM256,468.28C138.95,468.28,43.72,373.05,43.72,256S138.95,43.72,256,43.72,468.28,138.95,468.28,256,373.05,468.28,256,468.28Z" transform="translate(0)"/><path class="cls-1" d="M256,108.15a148.48,148.48,0,0,0-32.77,3.64l0,0c-3.37.77-6.69,1.64-10,2.64l-.09,0c-.86.25-1.72.52-2.57.8l-.33.15c-.35.16-.7.34-1,.54A13.28,13.28,0,0,0,203.94,133l1.18,2,5.08,8.8.26.45,39.47,68.37a43.72,43.72,0,1,0,43.92,21.44l0,0-56.15-97.26a120.54,120.54,0,1,1-63.29,30.43,13.66,13.66,0,1,0-18.5-20.1A148.25,148.25,0,0,0,108.15,256c0,81.52,66.33,147.85,147.85,147.85S403.85,337.52,403.85,256,337.52,108.15,256,108.15Z" transform="translate(0)"/><path class="cls-1" d="M206.44,108.87c.57-.16,57.8-16.16,105.94,1.58a13.66,13.66,0,0,0,9.45-25.64c-56.69-20.9-120.27-3-122.94-2.2a13.66,13.66,0,0,0,7.56,26.26Z" transform="translate(0)"/></svg>