<svg id="图层_1" data-name="图层 1" xmlns="http://www.w3.org/2000/svg" viewBox="0 0 512 395.64"><defs><style>.cls-1{fill:#666;}</style></defs><title>其他</title><path class="cls-1" d="M465.45,453.82H46.55A46.6,46.6,0,0,1,0,407.27V104.73A46.6,46.6,0,0,1,46.55,58.18H465.45A46.6,46.6,0,0,1,512,104.73V407.27A46.6,46.6,0,0,1,465.45,453.82ZM46.55,407.26l.06,0,418.84,0s0,0,0,0V104.74s0,0-.07,0l-418.84,0s0,0,0,.07l0,302.47Z" transform="translate(0 -58.18)"/><circle class="cls-1" cx="130.56" cy="197.82" r="33.98"/><circle class="cls-1" cx="256" cy="197.82" r="33.98"/><circle class="cls-1" cx="381.44" cy="197.82" r="33.98"/></svg>