<svg id="图层_1" data-name="图层 1" xmlns="http://www.w3.org/2000/svg" viewBox="0 0 479.23 512"><defs><style>.cls-1{fill:#666;}</style></defs><title>回收站</title><path class="cls-1" d="M472.05,64.74H367.66c-.39-1.14-.83-2.27-1.35-3.4L348.46,22.47C342.38,9.24,326.16,0,309,0H203c-17.16,0-33.39,9.24-39.46,22.46L145.69,61.34c-.52,1.13-1,2.26-1.35,3.4H39.95c-13,0-23.56,9.74-23.56,21.76s10.55,21.76,23.56,21.76H89.48V469.14c0,23.63,20.82,42.86,46.41,42.86H376.12c25.59,0,46.41-19.23,46.41-42.86V108.27h49.53c13,0,23.56-9.74,23.56-21.76S485.07,64.74,472.05,64.74Zm-267-21.21H306.94l9.74,21.21H195.32ZM375.39,468.47H136.61V108.27H375.39Z" transform="translate(-16.38)"/><path class="cls-1" d="M209,166.63c-13,0-23.56,9.74-23.56,21.76v200c0,12,10.55,21.76,23.56,21.76s23.56-9.74,23.56-21.76v-200C232.55,176.37,222,166.63,209,166.63Z" transform="translate(-16.38)"/><path class="cls-1" d="M303,166.63c-13,0-23.56,9.74-23.56,21.76v200c0,12,10.55,21.76,23.56,21.76s23.56-9.74,23.56-21.76v-200C326.58,176.37,316,166.63,303,166.63Z" transform="translate(-16.38)"/></svg>