<?xml version="1.0" encoding="utf-8"?>
<!-- Generator: Adobe Illustrator 20.1.0, SVG Export Plug-In . SVG Version: 6.00 Build 0)  -->
<svg version="1.1" id="图层_1" xmlns="http://www.w3.org/2000/svg" xmlns:xlink="http://www.w3.org/1999/xlink" x="0px" y="0px"
	 viewBox="0 0 512 512" style="enable-background:new 0 0 512 512;" xml:space="preserve">
<style type="text/css">
	.st0{fill:#666666;}
</style>
<g>
	<g>
		<path class="st0" d="M412.1,512H99.9c-20.1,0-36.4-16.3-36.4-36.4V232.5c0-20.1,16.3-36.4,36.4-36.4h55.9v39.5H103v237H409v-237
			h-52.9V196h55.9c20.1,0,36.4,16.3,36.4,36.4v243.1C448.5,495.7,432.2,512,412.1,512z"/>
	</g>
	<g>
		<path class="st0" d="M390.3,235.5H121.7V119.9C121.7,53.8,181.9,0,256,0c35.3,0,68.6,12.2,93.9,34.3c26,22.8,40.4,53.2,40.4,85.6
			V235.5z M161.2,196h189.6v-76.1c0-20.9-9.6-40.7-26.9-55.9c-18.1-15.8-42.2-24.6-67.9-24.6c-52.3,0-94.8,36.1-94.8,80.4V196z"/>
	</g>
	<g>
		<g>
			<circle class="st0" cx="256" cy="331.3" r="32.6"/>
		</g>
		<g>
			<path class="st0" d="M256,419.2c-5.5,0-9.9-4.4-9.9-9.9v-78c0-5.5,4.4-9.9,9.9-9.9c5.5,0,9.9,4.4,9.9,9.9v78
				C265.9,414.8,261.5,419.2,256,419.2z"/>
		</g>
	</g>
</g>
</svg>
