<svg id="图层_1" data-name="图层 1" xmlns="http://www.w3.org/2000/svg" viewBox="0 0 512 394.17"><defs><style>.cls-1{fill:#666;}</style></defs><title>个人信息</title><path class="cls-1" d="M195.5,290A115.53,115.53,0,1,1,311,174.45,115.66,115.66,0,0,1,195.5,290Zm0-192A76.46,76.46,0,1,0,272,174.45,76.55,76.55,0,0,0,195.5,98Z" transform="translate(0 -58.91)"/><path class="cls-1" d="M391,453.09H351.94c0-86.26-70.18-156.43-156.43-156.43S39.07,366.83,39.07,453.09H0c0-107.8,87.7-195.51,195.5-195.51S391,345.28,391,453.09Z" transform="translate(0 -58.91)"/><rect class="cls-1" x="356.33" y="252.28" width="155.67" height="29.17"/><rect class="cls-1" x="356.33" y="176.61" width="155.67" height="29.17"/><rect class="cls-1" x="356.33" y="100.95" width="155.67" height="29.17"/></svg>