<svg id="图层_1" data-name="图层 1" xmlns="http://www.w3.org/2000/svg" viewBox="0 0 512 395.64"><defs><style>.cls-1{fill:#666;}</style></defs><title>视频</title><path class="cls-1" d="M307.41,267.64c11.09-6.4,11.09-16.87,0-23.27L204.59,185c-11.09-6.4-20.15-1.16-20.15,11.64V315.36c0,12.8,9.07,18,20.15,11.64Z" transform="translate(0 -58.18)"/><path class="cls-1" d="M465.45,453.82H46.55A46.6,46.6,0,0,1,0,407.27V104.73A46.6,46.6,0,0,1,46.55,58.18H465.45A46.6,46.6,0,0,1,512,104.73V407.27A46.6,46.6,0,0,1,465.45,453.82ZM46.55,104.73V407.27H465.48l0-302.54Z" transform="translate(0 -58.18)"/><rect class="cls-1" x="63.84" y="65.79" width="64" height="36.86" rx="7.75" ry="7.75"/><rect class="cls-1" x="63.84" y="143.04" width="64" height="36.86" rx="7.75" ry="7.75"/><rect class="cls-1" x="63.84" y="220.3" width="64" height="36.86" rx="7.75" ry="7.75"/><rect class="cls-1" x="63.84" y="297.55" width="64" height="36.86" rx="7.75" ry="7.75"/><rect class="cls-1" x="383.14" y="65.79" width="64" height="36.86" rx="7.75" ry="7.75"/><rect class="cls-1" x="383.14" y="143.04" width="64" height="36.86" rx="7.75" ry="7.75"/><rect class="cls-1" x="383.14" y="220.3" width="64" height="36.86" rx="7.75" ry="7.75"/><rect class="cls-1" x="383.14" y="297.55" width="64" height="36.86" rx="7.75" ry="7.75"/></svg>