<svg id="图层_1" data-name="图层 1" xmlns="http://www.w3.org/2000/svg" viewBox="0 0 512 414.56"><defs><style>.cls-1{fill:none;stroke:#666;stroke-miterlimit:10;stroke-width:40px;}.cls-2{fill:#0078D7;}</style></defs><title>新建</title><path class="cls-1" d="M256,256" transform="translate(0 -48.72)"/><path class="cls-1" d="M256,256" transform="translate(0 -48.72)"/><path class="cls-2" d="M512,447.92a15.41,15.41,0,0,1-15.36,15.36H15.36A15.41,15.41,0,0,1,0,447.92V64.08A15.41,15.41,0,0,1,15.36,48.72H203.61c8.45,0,19.46,5.56,24.48,12.36l29.53,40c5,6.8,16,12.36,24.48,12.36H496.64A15.41,15.41,0,0,1,512,128.85ZM39.85,412.27a15.41,15.41,0,0,0,15.36,15.36H456.79a15.41,15.41,0,0,0,15.36-15.36V164.5a15.41,15.41,0,0,0-15.36-15.36H260.64c-8.45,0-19.46-5.56-24.48-12.36l-29.53-40c-5-6.8-16-12.36-24.48-12.36h-127A15.41,15.41,0,0,0,39.85,99.73Z" transform="translate(0 -48.72)"/><rect class="cls-2" x="241.23" y="136.85" width="29.54" height="206.81" rx="14.77" ry="14.77"/><rect class="cls-2" x="241.23" y="185.57" width="29.54" height="206.81" rx="14.77" ry="14.77" transform="translate(544.97 -15.74) rotate(90)"/></svg>