<?xml version="1.0" encoding="utf-8"?>
<!-- Generator: Adobe Illustrator 20.1.0, SVG Export Plug-In . SVG Version: 6.00 Build 0)  -->
<svg version="1.1" id="图层_1" xmlns="http://www.w3.org/2000/svg" xmlns:xlink="http://www.w3.org/1999/xlink" x="0px" y="0px"
	 viewBox="0 0 512 512" style="enable-background:new 0 0 512 512;" xml:space="preserve">
<style type="text/css">
	.st0{fill:#666666;}
</style>
<g>
	<g>
		<g>
			<path class="st0" d="M40,100h60V40H40V100z M104,140H36c-19.9,0-36-16.1-36-36V36C0,16.1,16.1,0,36,0h68c19.9,0,36,16.1,36,36v68
				C140,123.9,123.9,140,104,140z"/>
		</g>
		<g>
			<path class="st0" d="M215.8,100H472V40H215.8V100z M477,140H210.8c-19.3,0-35-15.7-35-35V35c0-19.3,15.7-35,35-35H477
				c19.3,0,35,15.7,35,35V105C512,124.3,496.3,140,477,140z"/>
		</g>
	</g>
	<g>
		<g>
			<path class="st0" d="M40,286h60v-60H40V286z M104,326H36c-19.9,0-36-16.1-36-36v-68c0-19.9,16.1-36,36-36h68
				c19.9,0,36,16.1,36,36v68C140,309.8,123.9,326,104,326z"/>
		</g>
		<g>
			<path class="st0" d="M215.8,286H472v-60H215.8V286z M477,326H210.8c-19.3,0-35-15.7-35-35V221c0-19.3,15.7-35,35-35H477
				c19.3,0,35,15.7,35,35V291C512,310.3,496.3,326,477,326z"/>
		</g>
	</g>
	<g>
		<g>
			<path class="st0" d="M40,472h60v-60H40V472z M104,512H36c-19.9,0-36-16.1-36-36v-68c0-19.9,16.1-36,36-36h68
				c19.9,0,36,16.1,36,36v68C140,495.8,123.9,512,104,512z"/>
		</g>
		<g>
			<path class="st0" d="M215.8,472H472v-60H215.8V472z M477,512H210.8c-19.3,0-35-15.7-35-35V407c0-19.3,15.7-35,35-35H477
				c19.3,0,35,15.7,35,35V477C512,496.3,496.3,512,477,512z"/>
		</g>
	</g>
</g>
</svg>
