<?xml version="1.0" encoding="utf-8"?>
<!-- Generator: Adobe Illustrator 20.1.0, SVG Export Plug-In . SVG Version: 6.00 Build 0)  -->
<svg version="1.1" id="图层_1" xmlns="http://www.w3.org/2000/svg" xmlns:xlink="http://www.w3.org/1999/xlink" x="0px" y="0px"
	 viewBox="0 0 512 512" style="enable-background:new 0 0 512 512;" xml:space="preserve">
<style type="text/css">
	.st0{fill:#FFFFFF;}
	.st1{fill:#CBCBCB;}
</style>
<g>
	<g>
		<g>
			
				<ellipse transform="matrix(0.7071 -0.7071 0.7071 0.7071 -52.6016 103.9891)" class="st0" cx="99.2" cy="115.5" rx="90.7" ry="90.7"/>
			<path class="st1" d="M99.2,214.7c-26.5,0-51.4-10.3-70.2-29.1C10.3,166.9,0,142,0,115.5s10.3-51.4,29.1-70.2
				c18.7-18.7,43.7-29.1,70.2-29.1s51.4,10.3,70.2,29.1c18.7,18.7,29.1,43.7,29.1,70.2s-10.3,51.4-29.1,70.2l0,0l0,0
				C150.6,204.4,125.7,214.7,99.2,214.7z M99.2,33.2c-22,0-42.6,8.6-58.2,24.1C25.5,72.9,17,93.5,17,115.5s8.6,42.6,24.1,58.2
				c15.5,15.5,36.2,24.1,58.2,24.1s42.6-8.6,58.2-24.1l0,0c15.5-15.5,24.1-36.2,24.1-58.2s-8.6-42.6-24.1-58.2
				C141.9,41.8,121.2,33.2,99.2,33.2z"/>
		</g>
	</g>
	<g>
		<g>
			
				<ellipse transform="matrix(0.7071 -0.7071 0.7071 0.7071 -57.4675 115.7365)" class="st1" cx="111" cy="127.2" rx="66.9" ry="66.9"/>
		</g>
	</g>
	<g>
		<g>
			
				<ellipse transform="matrix(0.7071 -0.7071 0.7071 0.7071 39.1135 325.4091)" class="st0" cx="412.4" cy="115.5" rx="90.7" ry="90.7"/>
			<path class="st1" d="M412.4,215.1c-26.6,0-51.6-10.4-70.5-29.2l0,0l0,0c-18.8-18.8-29.2-43.8-29.2-70.5s10.4-51.6,29.2-70.5
				c18.8-18.8,43.8-29.2,70.5-29.2c26.6,0,51.6,10.4,70.5,29.2c18.8,18.8,29.2,43.8,29.2,70.5s-10.4,51.6-29.2,70.5
				C464,204.8,439,215.1,412.4,215.1z M412.4,33.6c-21.9,0-42.4,8.5-57.9,24c-15.5,15.5-24,36-24,57.9c0,21.9,8.5,42.4,24,57.9l0,0
				c15.5,15.5,36,24,57.9,24s42.4-8.5,57.9-24c15.5-15.5,24-36,24-57.9c0-21.9-8.5-42.4-24-57.9C454.8,42.2,434.2,33.6,412.4,33.6z"
				/>
		</g>
	</g>
	<g>
		<g>
			
				<ellipse transform="matrix(0.7071 -0.7071 0.7071 0.7071 27.3662 320.5432)" class="st1" cx="400.6" cy="127.2" rx="66.9" ry="66.9"/>
		</g>
	</g>
	<g>
		<g>
			<path class="st0" d="M503.1,302.8c0,121-110.7,184.8-247.3,184.8S8.5,423.9,8.5,302.8S119.2,59.6,255.8,59.6
				S503.1,181.8,503.1,302.8z"/>
			<path class="st1" d="M255.8,496.2c-70.8,0-134.6-17.2-179.7-48.5C26.3,413.1,0,363,0,302.8c0-61.4,27.3-124.4,74.9-173
				c49.8-50.8,114-78.8,180.9-78.8s131.2,28,180.9,78.8c47.6,48.6,74.9,111.6,74.9,173c0,60.1-26.3,110.2-76.1,144.8
				C390.4,478.9,326.6,496.2,255.8,496.2z M255.8,68C119.1,68,17,192,17,302.8c0,107.1,93.7,176.3,238.8,176.3
				S494.6,410,494.6,302.8C494.6,192,392.5,68,255.8,68z"/>
		</g>
	</g>
	<g>
		<path class="st1" d="M295.4,412.9c-2.3,0-4.5-0.9-6.2-2.6c-18.4-18.4-48.4-18.4-66.8,0c-3.4,3.4-9,3.4-12.5,0
			c-3.4-3.4-3.4-9,0-12.5c25.3-25.3,66.5-25.3,91.8,0c3.4,3.4,3.4,9,0,12.5C300,412,297.7,412.9,295.4,412.9z"/>
	</g>
	<g>
		<path class="st1" d="M255.9,348.3c-9.9,0-25.8-17-19.9-22c6-5.1,34.7-5.5,39.7,0C280.8,331.8,265.9,348.3,255.9,348.3z"/>
	</g>
	<g>
		<path class="st1" d="M255.8,393.4L255.8,393.4c-2.8,0-5.1-2.3-5.1-5.1v-50.8c0-2.8,2.3-5.1,5.1-5.1h0c2.8,0,5.1,2.3,5.1,5.1v50.8
			C260.9,391.1,258.6,393.4,255.8,393.4z"/>
	</g>
	<g>
		<g>
			<g>
				<path class="st1" d="M183.8,258.6L183.8,258.6c3.4,2.9,3.4,7.6,0,10.5l-40.4,34.1c-3.4,2.9-9,2.9-12.5,0l0,0
					c-3.4-2.9-3.4-7.6,0-10.5l40.4-34.1C174.7,255.7,180.3,255.7,183.8,258.6z"/>
			</g>
			<g>
				<path class="st1" d="M183.8,269.1L183.8,269.1c-3.4,2.9-9,2.9-12.5,0L130.9,235c-3.4-2.9-3.4-7.6,0-10.5v0c3.4-2.9,9-2.9,12.5,0
					l40.4,34.1C187.2,261.5,187.2,266.2,183.8,269.1z"/>
			</g>
		</g>
		<g>
			<g>
				<path class="st1" d="M327.8,269.1L327.8,269.1c-3.4-2.9-3.4-7.6,0-10.5l40.4-34.1c3.4-2.9,9-2.9,12.5,0l0,0
					c3.4,2.9,3.4,7.6,0,10.5l-40.4,34.1C336.9,272,331.3,272,327.8,269.1z"/>
			</g>
			<g>
				<path class="st1" d="M327.8,258.6L327.8,258.6c3.4-2.9,9-2.9,12.5,0l40.4,34.1c3.4,2.9,3.4,7.6,0,10.5h0c-3.4,2.9-9,2.9-12.5,0
					l-40.4-34.1C324.4,266.2,324.4,261.5,327.8,258.6z"/>
			</g>
		</g>
	</g>
</g>
</svg>
