<svg id="图层_1" data-name="图层 1" xmlns="http://www.w3.org/2000/svg" viewBox="0 0 512 512"><defs><style>.cls-1{fill:#0078d7;}</style></defs><title>搜索</title><path class="cls-1" d="M189.45,378.9a189,189,0,0,1-134-55.42c-73.9-73.9-73.9-194.15,0-268s194.15-73.9,268,0h0c73.9,73.9,73.9,194.15,0,268A189,189,0,0,1,189.45,378.9Zm0-344.45A154.59,154.59,0,0,0,79.79,79.79c-60.46,60.46-60.46,158.85,0,219.31s158.85,60.46,219.31,0,60.46-158.85,0-219.31h0A154.59,154.59,0,0,0,189.45,34.45Z" transform="translate(0 0)"/><path class="cls-1" d="M494.77,512a17.18,17.18,0,0,1-12.18-5L312.27,336.64a17.23,17.23,0,0,1,24.37-24.37L507,482.59A17.23,17.23,0,0,1,494.77,512Z" transform="translate(0 0)"/></svg>