<?xml version="1.0" encoding="utf-8"?>
<!-- Generator: Adobe Illustrator 20.1.0, SVG Export Plug-In . SVG Version: 6.00 Build 0)  -->
<svg version="1.1" id="图层_1" xmlns="http://www.w3.org/2000/svg" xmlns:xlink="http://www.w3.org/1999/xlink" x="0px" y="0px"
	 viewBox="0 0 512 512" style="enable-background:new 0 0 512 512;" xml:space="preserve">
<style type="text/css">
	.st0{fill:#666666;}
</style>
<g>
	<path class="st0" d="M187.1,239.1h-136c-28.7,0-52-23.3-52-52v-136c0-28.7,23.3-52,52-52h136c28.7,0,52,23.3,52,52v136
		C239.1,215.8,215.8,239.1,187.1,239.1z M51.1,39.1c-6.6,0-12,5.4-12,12v136c0,6.6,5.4,12,12,12h136c6.6,0,12-5.4,12-12v-136
		c0-6.6-5.4-12-12-12H51.1z"/>
</g>
<g>
	<path class="st0" d="M460,239.1H324c-28.7,0-52-23.3-52-52v-136c0-28.7,23.3-52,52-52h136c28.7,0,52,23.3,52,52v136
		C512,215.8,488.7,239.1,460,239.1z M324,39.1c-6.6,0-12,5.4-12,12v136c0,6.6,5.4,12,12,12h136c6.6,0,12-5.4,12-12v-136
		c0-6.6-5.4-12-12-12H324z"/>
</g>
<g>
	<path class="st0" d="M187.1,512h-136c-28.7,0-52-23.3-52-52V324c0-28.7,23.3-52,52-52h136c28.7,0,52,23.3,52,52v136
		C239.1,488.7,215.8,512,187.1,512z M51.1,312c-6.6,0-12,5.4-12,12v136c0,6.6,5.4,12,12,12h136c6.6,0,12-5.4,12-12V324
		c0-6.6-5.4-12-12-12H51.1z"/>
</g>
<g>
	<path class="st0" d="M460,512H324c-28.7,0-52-23.3-52-52V324c0-28.7,23.3-52,52-52h136c28.7,0,52,23.3,52,52v136
		C512,488.7,488.7,512,460,512z M324,312c-6.6,0-12,5.4-12,12v136c0,6.6,5.4,12,12,12h136c6.6,0,12-5.4,12-12V324
		c0-6.6-5.4-12-12-12H324z"/>
</g>
</svg>
