<svg id="图层_1" data-name="图层 1" xmlns="http://www.w3.org/2000/svg" viewBox="0 0 512 512"><defs><style>.cls-1{fill:none;stroke:#666;stroke-miterlimit:10;stroke-width:40px;}.cls-2{fill:#fff;fill-rule:evenodd;}</style></defs><title>上传</title><path class="cls-1" d="M256,256"/><path class="cls-1" d="M256,256"/><path class="cls-2" d="M497,224H463a15,15,0,0,0-15,15V448H64V239a15,15,0,0,0-15-15H15A15,15,0,0,0,0,239V497a15,15,0,0,0,15,15H497a15,15,0,0,0,15-15V239a15,15,0,0,0-15-15Z"/><path class="cls-2" d="M224,128V336a16,16,0,0,0,16,16h32a16,16,0,0,0,16-16V128h96L256,0,128,128Z"/></svg>